<?xml version="1.0" standalone="no"?><!DOCTYPE svg PUBLIC "-//W3C//DTD SVG 1.1//EN" "http://www.w3.org/Graphics/SVG/1.1/DTD/svg11.dtd"><svg t="1671868217899" class="icon" viewBox="0 0 1024 1024" version="1.1" xmlns="http://www.w3.org/2000/svg" p-id="14660" xmlns:xlink="http://www.w3.org/1999/xlink" width="200" height="200"><path d="M981.333333 430.933333v172.8c0 17.066667-8.533333 29.866667-23.466666 38.4L339.2 960c-29.866667 12.8-61.866667 21.333333-93.866667 21.333333-51.2 0-102.4-21.333333-142.933333-59.733333-64-64-78.933333-155.733333-36.266667-236.8L384 66.133333c6.4-14.933333 21.333333-23.466667 38.4-23.466666h172.8c23.466667 0 42.666667 19.2 42.666667 42.666666v130.133334H768c23.466667 0 42.666667 19.2 42.666667 42.666666v130.133334h128c23.466667 0 42.666667 19.2 42.666666 42.666666zM896 576v-104.533333h-130.133333c-23.466667 0-42.666667-19.2-42.666667-42.666667V298.666667h-130.133333c-23.466667 0-42.666667-19.2-42.666667-42.666667V128H448l-204.8 396.8 256 256L896 576zM300.8 883.2l119.466667-61.866667L202.666667 603.733333l-61.866667 119.466667c-29.866667 55.466667-8.533333 108.8 21.333333 136.533333 29.866667 29.866667 81.066667 51.2 138.666667 23.466667z" p-id="14661"></path></svg>