<?xml version="1.0" standalone="no"?><!DOCTYPE svg PUBLIC "-//W3C//DTD SVG 1.1//EN" "http://www.w3.org/Graphics/SVG/1.1/DTD/svg11.dtd"><svg t="1671868079497" class="icon" viewBox="0 0 1024 1024" version="1.1" xmlns="http://www.w3.org/2000/svg" p-id="10982" xmlns:xlink="http://www.w3.org/1999/xlink" width="200" height="200"><path d="M768 85.333333H256a42.666667 42.666667 0 0 0-42.666667 42.666667v768a42.666667 42.666667 0 0 0 42.666667 42.666667h512a42.666667 42.666667 0 0 0 42.666667-42.666667V128a42.666667 42.666667 0 0 0-42.666667-42.666667z m0 810.666667H256V128h512z" p-id="10983"></path><path d="M384 298.666667m-21.333333 0a21.333333 21.333333 0 1 0 42.666666 0 21.333333 21.333333 0 1 0-42.666666 0Z" p-id="10984"></path><path d="M384 384a85.333333 85.333333 0 1 0-85.333333-85.333333 85.333333 85.333333 0 0 0 85.333333 85.333333z m0-128a42.666667 42.666667 0 1 1-42.666667 42.666667 42.666667 42.666667 0 0 1 42.666667-42.666667z" p-id="10985"></path><path d="M512 512m-21.333333 0a21.333333 21.333333 0 1 0 42.666666 0 21.333333 21.333333 0 1 0-42.666666 0Z" p-id="10986"></path><path d="M426.666667 512a85.333333 85.333333 0 1 0 85.333333-85.333333 85.333333 85.333333 0 0 0-85.333333 85.333333z m85.333333-42.666667a42.666667 42.666667 0 1 1-42.666667 42.666667 42.666667 42.666667 0 0 1 42.666667-42.666667z" p-id="10987"></path><path d="M640 725.333333m-21.333333 0a21.333333 21.333333 0 1 0 42.666666 0 21.333333 21.333333 0 1 0-42.666666 0Z" p-id="10988"></path><path d="M554.666667 725.333333a85.333333 85.333333 0 1 0 85.333333-85.333333 85.333333 85.333333 0 0 0-85.333333 85.333333z m85.333333-42.666666a42.666667 42.666667 0 1 1-42.666667 42.666666 42.666667 42.666667 0 0 1 42.666667-42.666666z" p-id="10989"></path></svg>