<?xml version="1.0" standalone="no"?><!DOCTYPE svg PUBLIC "-//W3C//DTD SVG 1.1//EN" "http://www.w3.org/Graphics/SVG/1.1/DTD/svg11.dtd"><svg t="1671868153475" class="icon" viewBox="0 0 1024 1024" version="1.1" xmlns="http://www.w3.org/2000/svg" p-id="13816" xmlns:xlink="http://www.w3.org/1999/xlink" width="200" height="200"><path d="M315.058605 87.468651C331.799814 36.435349 386.500465 7.620465 438.414884 21.194419l4.858046 1.381209 390.929861 122.356093c52.033488 16.312558 81.777116 70.298791 67.631628 121.927442l-1.428838 4.810418-105.186232 316.582698-56.486698-18.765395 105.138605-316.487442c6.572651-20.027535-4.024558-41.86493-24.052093-50.009302l-3.405396-1.238326-390.92986-122.356093c-21.313488-6.667907-44.293953 3.953116-52.628837 23.290046l-1.238326 3.286326-17.265116 52.914605-56.605768-18.455814 17.288931-52.962233z" p-id="13817"></path><path d="M629.021767 186.153674H216.397395c-56.391442 0-102.590512 45.437023-102.590511 101.376v633.498791c0 55.938977 46.19907 101.376 102.590511 101.376h412.624372c56.367628 0 102.566698-45.437023 102.566698-101.376V287.529674c0-55.962791-46.19907-101.376-102.566698-101.376z m-412.624372 59.534884h412.624372c23.694884 0 43.031814 19.003535 43.031814 41.841116v633.498791c0 22.837581-19.33693 41.841116-43.031814 41.841116H216.397395c-23.718698 0-43.055628-19.003535-43.055628-41.841116V287.529674c0-22.837581 19.33693-41.841116 43.055628-41.841116z" p-id="13818"></path><path d="M629.021767 186.153674H216.397395c-56.391442 0-102.590512 45.437023-102.590511 101.376v633.498791c0 55.938977 46.19907 101.376 102.590511 101.376h412.624372c56.367628 0 102.566698-45.437023 102.566698-101.376V287.529674c0-55.962791-46.19907-101.376-102.566698-101.376z m-412.624372 59.534884h412.624372c23.694884 0 43.031814 19.003535 43.031814 41.841116v633.498791c0 22.837581-19.33693 41.841116-43.031814 41.841116H216.397395c-23.718698 0-43.055628-19.003535-43.055628-41.841116V287.529674c0-22.837581 19.33693-41.841116 43.055628-41.841116z" p-id="13819"></path><path d="M278.099349 306.342698v75.776h-59.534884v-75.776zM622.877767 844.68093v75.823628h-59.534883V844.68093zM421.030698 470.373209l-3.381582 3.31014 0.809675 0.78586c-44.960744-46.461023-118.355349-47.199256-162.887442-1.214511-43.936744 45.413209-43.222326 119.593674 1.190698 165.506976l139.502139 144.002977a29.767442 29.767442 0 0 0 42.746047 0l139.502139-143.955349c44.484465-45.96093 45.198884-120.117581 1.238326-165.554604-43.150884-44.603535-113.54493-45.246512-158.72-2.857675z m118.712558 47.389768c18.574884 22.432744 17.28893 57.629767-4.000744 79.63386l-118.11721 121.879814-118.093395-121.903628c-22.242233-23.004279-22.623256-60.558884-1.190698-82.729674 20.956279-21.599256 55.581767-21.26586 77.300093 1.214511l20.575256 21.265861a29.767442 29.767442 0 0 0 42.746047 0.047628l20.670511-21.265861c21.74214-22.528 56.415256-22.861395 77.323907-1.262139l2.786233 3.119628z" p-id="13820"></path></svg>