<?xml version="1.0" standalone="no"?><!DOCTYPE svg PUBLIC "-//W3C//DTD SVG 1.1//EN" "http://www.w3.org/Graphics/SVG/1.1/DTD/svg11.dtd"><svg t="1671868614418" class="icon" viewBox="0 0 1024 1024" version="1.1" xmlns="http://www.w3.org/2000/svg" p-id="17735" xmlns:xlink="http://www.w3.org/1999/xlink" width="200" height="200"><path d="M864 0c-53 0-96 43-96 96s43 96 96 96 96-43 96-96-43-96-96-96z m0 896c-17.6 0-32 14.4-32 32s-14.4 32-32 32h-192c-17.6 0-32 14.4-32 32s14.4 32 32 32h192c53 0 96-43 96-96 0-17.6-14.4-32-32-32z m-564.4 17.2c-12.4 12.4-32.8 12.6-45.2 0l-135.8-135.8c-12.4-12.4-32.8-12.4-45.2 0s-12.4 32.8 0 45.2l135.8 135.8c18.8 18.8 43.4 28 68 28s49.2-9.4 67.8-28c12.4-12.4 12.4-32.8 0-45.2s-32.8-12.6-45.4 0z m112.2-359.6l-187.4 187.4c-25 25-25 65.6 0 90.4 12.4 12.4 28.8 18.8 45.2 18.8s32.8-6.2 45.2-18.8l183.8-183.8-60.4-60.4c-10-10-18.8-21.4-26.4-33.6zM320 320h211l-40.2 34.4c-27 23-43.2 56.8-44.6 92.2-1.4 35.6 12.2 70.4 37.4 95.4l156.4 156.4V864c0 35.4 28.6 64 64 64s64-28.6 64-64v-178.8c0-25.2-10.2-50-28.2-67.8l-122-122c1-0.8 2.4-1.2 3.4-2.2l164.6-164.6c23-23 29.8-57.2 17.4-87.2-12.4-30-41.4-49.4-74-49.4H320c-35.4 0-64 28.6-64 64s28.6 64 64 64z" p-id="17736"></path></svg>