<?xml version="1.0" standalone="no"?><!DOCTYPE svg PUBLIC "-//W3C//DTD SVG 1.1//EN" "http://www.w3.org/Graphics/SVG/1.1/DTD/svg11.dtd"><svg t="1671867999203" class="icon" viewBox="0 0 1024 1024" version="1.1" xmlns="http://www.w3.org/2000/svg" p-id="7395" xmlns:xlink="http://www.w3.org/1999/xlink" width="200" height="200"><path d="M752 352a112.448 112.448 0 0 0-112 112c0 61.504 50.496 112 112 112s112-50.496 112-112-50.496-112-112-112z m-312.992 0.992a62.24 62.24 0 0 0-32.992 12l-169.024 120.992 38.016 52.032 168-121.024 72.992 84-236.992 200.992c12.992 1.152 26.88 2.016 40.992 2.016 21.632 0 42.368-2.24 63.008-6.016l173.984-148.992 65.024 75.008a495.744 495.744 0 0 1 72.96-14.016l-203.968-234.976a62.368 62.368 0 0 0-52-22.016zM752 416c26.88 0 48 21.12 48 48 0 27.008-21.12 48-48 48a47.36 47.36 0 0 1-48-48c0-26.88 20.992-48 48-48z m-16 224c-78.016 0-146.368 26.112-212.992 50.016C456.384 713.856 391.488 736 320 736c-175.872 0-266.016-87.008-266.016-87.008L10.016 695.04S122.144 800 320 800c84.64 0 156.992-25.888 224-50.016C611.008 725.888 672.512 704 736 704c127.008 0 235.008 88.992 235.008 88.992l41.984-49.984S892 640 736 640z" p-id="7396"></path></svg>